<svg width="20" height="20" viewBox="0 0 20 20" fill="none" xmlns="http://www.w3.org/2000/svg">
<path d="M12.5001 15.625H7.50008C7.11344 15.6246 6.74277 15.4708 6.46937 15.1974C6.19598 14.924 6.04219 14.5533 6.04175 14.1667V12.9167C6.09801 12.3527 6.28426 11.8094 6.58588 11.3295C6.8875 10.8496 7.29627 10.4461 7.78008 10.1508C7.80281 10.1329 7.82106 10.11 7.83335 10.0838C7.84565 10.0576 7.85166 10.0289 7.85091 10C7.85173 9.97119 7.84574 9.94259 7.83343 9.91653C7.82113 9.89047 7.80285 9.86767 7.78008 9.85C7.2965 9.55423 6.88794 9.15056 6.58636 8.67059C6.28479 8.19061 6.09838 7.64735 6.04175 7.08333V5.83333C6.04219 5.44669 6.19598 5.07602 6.46937 4.80262C6.74277 4.52923 7.11344 4.37544 7.50008 4.375H12.5001C12.8867 4.37544 13.2574 4.52923 13.5308 4.80262C13.8042 5.07602 13.958 5.44669 13.9584 5.83333V7.08333C13.9022 7.64735 13.7159 8.19064 13.4143 8.67054C13.1127 9.15044 12.7039 9.55387 12.2201 9.84917C12.1973 9.86706 12.1791 9.89001 12.1668 9.9162C12.1545 9.94238 12.1485 9.97108 12.1492 10C12.1484 10.0288 12.1544 10.0574 12.1667 10.0835C12.179 10.1095 12.1973 10.1323 12.2201 10.15C12.7037 10.4458 13.1122 10.8494 13.4138 11.3294C13.7154 11.8094 13.9018 12.3526 13.9584 12.9167V14.1667C13.958 14.5533 13.8042 14.924 13.5308 15.1974C13.2574 15.4708 12.8867 15.6246 12.5001 15.625ZM7.50008 5.625C7.44483 5.625 7.39184 5.64695 7.35277 5.68602C7.3137 5.72509 7.29175 5.77808 7.29175 5.83333V7.08333C7.35875 7.45069 7.5046 7.79916 7.71924 8.10473C7.93389 8.4103 8.21223 8.6657 8.53508 8.85333C8.71103 8.98825 8.85356 9.16185 8.95166 9.36069C9.04975 9.55953 9.10077 9.77828 9.10077 10C9.10077 10.2217 9.04975 10.4405 8.95166 10.6393C8.85356 10.8381 8.71103 11.0117 8.53508 11.1467C8.21223 11.3343 7.93389 11.5897 7.71924 11.8953C7.5046 12.2008 7.35875 12.5493 7.29175 12.9167V14.1667C7.29175 14.2219 7.3137 14.2749 7.35277 14.314C7.39184 14.3531 7.44483 14.375 7.50008 14.375H12.5001C12.5553 14.375 12.6083 14.3531 12.6474 14.314C12.6865 14.2749 12.7084 14.2219 12.7084 14.1667V12.9167C12.6414 12.5493 12.4956 12.2008 12.2809 11.8953C12.0663 11.5897 11.7879 11.3343 11.4651 11.1467C11.2891 11.0117 11.1466 10.8381 11.0485 10.6393C10.9504 10.4405 10.8994 10.2217 10.8994 10C10.8994 9.77828 10.9504 9.55953 11.0485 9.36069C11.1466 9.16185 11.2891 8.98825 11.4651 8.85333C11.7879 8.6657 12.0663 8.4103 12.2809 8.10473C12.4956 7.79916 12.6414 7.45069 12.7084 7.08333V5.83333C12.7084 5.77808 12.6865 5.72509 12.6474 5.68602C12.6083 5.64695 12.5553 5.625 12.5001 5.625H7.50008Z" fill="#292D32"/>
<path d="M10.0176 18.96C9.61454 18.9591 9.21198 18.9312 8.81262 18.8767C8.73136 18.8658 8.65303 18.839 8.58212 18.7979C8.51121 18.7567 8.4491 18.702 8.39934 18.6368C8.34959 18.5717 8.31315 18.4973 8.29212 18.4181C8.27109 18.3389 8.26588 18.2563 8.27679 18.175C8.2866 18.0932 8.31268 18.0143 8.35349 17.9428C8.3943 17.8713 8.44902 17.8087 8.51442 17.7587C8.57982 17.7086 8.65457 17.6722 8.73426 17.6516C8.81396 17.6309 8.89699 17.6264 8.97845 17.6383C10.4892 17.84 12.0259 17.5893 13.3942 16.9178C14.7625 16.2464 15.901 15.1844 16.6659 13.866C17.4307 12.5476 17.7876 11.0321 17.6913 9.51101C17.5951 7.98988 17.0501 6.53143 16.1251 5.32C15.9029 5.02984 15.6606 4.75556 15.4001 4.49916C15.282 4.3828 15.2149 4.22427 15.2137 4.05846C15.2124 3.89265 15.2771 3.73313 15.3935 3.615C15.5098 3.49686 15.6683 3.4298 15.8342 3.42855C16 3.4273 16.1595 3.49197 16.2776 3.60833C16.5795 3.90586 16.8602 4.22413 17.1176 4.56083C18.1308 5.88712 18.7534 7.47003 18.9152 9.13116C19.0771 10.7923 18.7717 12.4656 18.0336 13.9625C17.2955 15.4594 16.154 16.7204 14.7377 17.6034C13.3214 18.4864 11.6866 18.9562 10.0176 18.96Z" fill="#292D32"/>
<path d="M4.15999 16.5717C3.99607 16.5716 3.83872 16.5073 3.72166 16.3925C2.80729 15.4922 2.09675 14.4062 1.63804 13.2079C1.17932 12.0095 0.983114 10.7266 1.06266 9.44588C1.14221 8.16517 1.49566 6.91644 2.09914 5.78402C2.70262 4.65161 3.54208 3.66188 4.56083 2.88168C5.49375 2.16399 6.55995 1.63876 7.69752 1.33649C8.83509 1.03421 10.0214 0.960914 11.1875 1.12085C11.3518 1.14295 11.5006 1.22942 11.6012 1.36124C11.7018 1.49307 11.7458 1.65944 11.7237 1.82376C11.7016 1.98809 11.6152 2.1369 11.4833 2.23747C11.3515 2.33803 11.1852 2.38211 11.0208 2.36001C9.50978 2.15802 7.97277 2.40861 6.60414 3.08011C5.23551 3.75161 4.09672 4.81386 3.33178 6.13254C2.56683 7.45122 2.21007 8.96711 2.30661 10.4885C2.40316 12.01 2.94866 13.4686 3.87416 14.68C4.09642 14.9704 4.33867 15.245 4.59916 15.5017C4.71698 15.6181 4.78377 15.7765 4.78487 15.9421C4.78596 16.1078 4.72127 16.2671 4.60499 16.385C4.54718 16.4444 4.47797 16.4916 4.40151 16.5237C4.32505 16.5558 4.24291 16.5721 4.15999 16.5717Z" fill="#292D32"/>
<path d="M4.39172 17.0092C4.36384 17.0093 4.33599 17.0073 4.30839 17.0033L1.97506 16.6908C1.81449 16.6646 1.6705 16.5767 1.57367 16.446C1.47684 16.3153 1.43481 16.1519 1.45651 15.9907C1.47822 15.8294 1.56194 15.683 1.68989 15.5825C1.81784 15.482 1.97993 15.4354 2.14172 15.4525L3.85922 15.6817L4.08839 13.965C4.09831 13.8832 4.12448 13.8042 4.16538 13.7327C4.20628 13.6612 4.26108 13.5986 4.32654 13.5486C4.392 13.4986 4.46681 13.4622 4.54656 13.4415C4.62631 13.4209 4.70938 13.4164 4.79089 13.4283C4.95513 13.4505 5.10387 13.5369 5.20448 13.6686C5.30509 13.8003 5.34935 13.9665 5.32756 14.1308L5.01506 16.4642C4.99554 16.6154 4.92139 16.7543 4.80658 16.8547C4.69178 16.9551 4.54423 17.01 4.39172 17.0092Z" fill="#292D32"/>
<path d="M15.2976 6.5775C15.2697 6.5776 15.2418 6.57565 15.2142 6.57166C15.05 6.54949 14.9012 6.46308 14.8006 6.33138C14.7 6.19968 14.6558 6.03345 14.6776 5.86916L14.9901 3.53583C15 3.45408 15.0261 3.37514 15.0671 3.30366C15.108 3.23219 15.1628 3.16964 15.2283 3.1197C15.2937 3.06975 15.3686 3.03343 15.4483 3.01287C15.528 2.99231 15.6111 2.98794 15.6926 3L18.0259 3.3125C18.1865 3.33875 18.3304 3.42659 18.4273 3.55733C18.5241 3.68808 18.5661 3.85143 18.5444 4.01267C18.5227 4.17391 18.439 4.32034 18.3111 4.42083C18.1831 4.52132 18.021 4.56796 17.8592 4.55083L16.1417 4.32166L15.9167 6.035C15.8967 6.18508 15.8229 6.3228 15.7091 6.42258C15.5952 6.52236 15.449 6.57741 15.2976 6.5775Z" fill="#292D32"/>
</svg>
