<svg width="20" height="13" viewBox="0 0 20 13" fill="none" xmlns="http://www.w3.org/2000/svg">
<path d="M2.77406 4.87513H12.1878C12.6365 4.87513 13.0003 4.51136 13.0003 4.06262C13.0003 3.61387 12.6365 3.2501 12.1878 3.2501H2.77406L4.63709 1.38707C4.9544 1.06976 4.9544 0.555282 4.63709 0.237978C4.31979 -0.0793261 3.80531 -0.0793261 3.488 0.237978L0.237873 3.48807C0.218944 3.507 0.201043 3.52692 0.184056 3.54764C0.176363 3.55701 0.169659 3.56691 0.162461 3.57655C0.153777 3.58813 0.144826 3.59944 0.136752 3.61151C0.12902 3.62305 0.122317 3.63505 0.115233 3.64689C0.10872 3.65779 0.101864 3.66845 0.0958464 3.67969C0.0893715 3.69176 0.083887 3.70422 0.0780977 3.71656C0.0725751 3.72825 0.0667478 3.73975 0.0617583 3.75175C0.056807 3.76375 0.0527698 3.77601 0.0484278 3.7882C0.0438193 3.80103 0.038906 3.81368 0.034945 3.82678C0.0312505 3.83897 0.0285463 3.85135 0.0254613 3.86369C0.0220715 3.87705 0.018339 3.89027 0.0156348 3.90391C0.0128163 3.91819 0.0111405 3.93259 0.00908379 3.94694C0.00740795 3.95879 0.00512272 3.97048 0.00394202 3.98248C-0.00131401 4.0358 -0.00131401 4.08954 0.00394202 4.14287C0.00512272 4.15486 0.00736987 4.16652 0.00908379 4.1784C0.0111405 4.19276 0.0128163 4.20719 0.0156729 4.22144C0.0183771 4.23507 0.0221096 4.24825 0.0254994 4.26162C0.0285844 4.27396 0.0312886 4.28634 0.0349831 4.29853C0.0389441 4.31163 0.0438574 4.32431 0.0484659 4.33711C0.0528459 4.3493 0.0568451 4.36156 0.0617964 4.37356C0.0667478 4.38556 0.0726132 4.39702 0.0781358 4.40871C0.0839632 4.42105 0.0894477 4.43351 0.0959225 4.44562C0.10194 4.45682 0.108758 4.46744 0.115271 4.47834C0.122355 4.49022 0.129058 4.50222 0.13679 4.5138C0.144826 4.52583 0.153777 4.53711 0.162423 4.54868C0.169659 4.55836 0.176363 4.56826 0.184094 4.57767C0.200967 4.59824 0.218754 4.618 0.237531 4.63678C0.237683 4.63693 0.237759 4.63708 0.237912 4.6372L3.488 7.88729C3.80531 8.2046 4.31979 8.2046 4.63709 7.88729C4.9544 7.56999 4.9544 7.05551 4.63709 6.7382L2.77406 4.87513Z" fill="black"/>
<path d="M19.3165 9.45282C19.3242 9.44338 19.3309 9.43343 19.3382 9.42372C19.3468 9.41222 19.3558 9.40095 19.3638 9.38895C19.3715 9.37737 19.3782 9.36533 19.3853 9.35345C19.3918 9.3426 19.3986 9.33197 19.4046 9.32081C19.4111 9.3087 19.4166 9.29621 19.4224 9.28383C19.4279 9.27217 19.4337 9.26071 19.4387 9.24875C19.4437 9.23675 19.4477 9.22449 19.4521 9.2123C19.4567 9.19947 19.4616 9.18682 19.4655 9.17372C19.4692 9.16153 19.4719 9.14911 19.475 9.13681C19.4784 9.12344 19.4821 9.11023 19.4848 9.09663C19.4877 9.08235 19.4893 9.06795 19.4914 9.05359C19.4931 9.04175 19.4954 9.03009 19.4966 9.01806C19.5018 8.96473 19.5018 8.91099 19.4966 8.85767C19.4954 8.84567 19.4931 8.83402 19.4914 8.82214C19.4894 8.80778 19.4877 8.79334 19.4848 8.7791C19.4821 8.76546 19.4784 8.75228 19.475 8.73892C19.4719 8.72658 19.4692 8.7142 19.4655 8.70201C19.4616 8.68891 19.4567 8.67622 19.4521 8.66343C19.4477 8.65124 19.4437 8.63897 19.4387 8.62698C19.4338 8.61502 19.4279 8.60355 19.4224 8.5919C19.4166 8.57952 19.4111 8.56703 19.4046 8.55492C19.3986 8.54376 19.3918 8.53313 19.3853 8.52228C19.3782 8.51039 19.3715 8.49836 19.3638 8.48678C19.3557 8.47478 19.3468 8.46351 19.3382 8.452C19.3309 8.44229 19.3242 8.43235 19.3165 8.42291C19.2997 8.40253 19.2821 8.38291 19.2634 8.36425C19.2632 8.36395 19.2629 8.36364 19.2626 8.36338L16.0126 5.11328C15.6952 4.79598 15.1808 4.79598 14.8635 5.11328C14.5462 5.43059 14.5462 5.94507 14.8635 6.26237L16.7265 8.12541H7.31276C6.86401 8.12541 6.50024 8.48918 6.50024 8.93792C6.50024 9.38666 6.86401 9.75043 7.31276 9.75043H16.7265L14.8635 11.6135C14.5462 11.9308 14.5462 12.4453 14.8635 12.7626C15.1808 13.0799 15.6952 13.0799 16.0126 12.7626L19.2626 9.51247C19.2629 9.51216 19.2632 9.51186 19.2634 9.51159C19.2821 9.49281 19.2997 9.4732 19.3165 9.45282Z" fill="black"/>
</svg>
